<svg id="Coinbase-icon-symbol-1" xmlns="http://www.w3.org/2000/svg" width="46.02" height="46.02" viewBox="0 0 46.02 46.02">
  <path id="Path_14661" data-name="Path 14661" d="M23.01,0h0A23.008,23.008,0,0,1,46.02,23.01h0A23.008,23.008,0,0,1,23.01,46.02h0A23.008,23.008,0,0,1,0,23.01H0A23.008,23.008,0,0,1,23.01,0Z" fill="#3d64f4"/>
  <path id="Path_14662" data-name="Path 14662" d="M168.183,176.268a8.089,8.089,0,1,1,7.968-9.438H184.3a16.179,16.179,0,1,0,0,2.7h-8.152A8.086,8.086,0,0,1,168.183,176.268Z" transform="translate(-145.169 -145.169)" fill="#fff"/>
</svg>
