<svg xmlns="http://www.w3.org/2000/svg" width="143.469" height="26.98" viewBox="0 0 143.469 26.98">
  <g id="layer1" transform="translate(-81.2 -438.3)">
    <path id="text2396" d="M97.172,450.346h-6.88v-2.131a9.506,9.506,0,0,0-.189-2.536c-.135-.351-.432-.513-.944-.513a.872.872,0,0,0-.863.432,6.221,6.221,0,0,0-.216,2.239v11.278a6.535,6.535,0,0,0,.216,2.077.938.938,0,0,0,.917.513,1.027,1.027,0,0,0,1.025-.567,5.731,5.731,0,0,0,.27-2.212v-2.779H89.132v-3.561H97.2v12.627H92.856l-.648-1.673a4.529,4.529,0,0,1-1.781,1.646,5.672,5.672,0,0,1-2.536.54,6.974,6.974,0,0,1-3.238-.755,5.723,5.723,0,0,1-2.293-1.862,5.624,5.624,0,0,1-.971-2.32,24.457,24.457,0,0,1-.189-3.642v-6.988a20.882,20.882,0,0,1,.4-4.883,5.122,5.122,0,0,1,2.347-2.806A9.1,9.1,0,0,1,88.97,441.2a10.31,10.31,0,0,1,5.018,1.106,5.483,5.483,0,0,1,2.59,2.617,12.474,12.474,0,0,1,.594,4.4v1.025Zm7.8,3.049H98.764v-1.3a7.946,7.946,0,0,1,.594-3.453,5.022,5.022,0,0,1,2.32-2.131,9.6,9.6,0,0,1,4.533-.917,10.943,10.943,0,0,1,5.342,1.052,4.2,4.2,0,0,1,2.051,2.59,37.257,37.257,0,0,1,.351,6.313v9.686h-6.718v-1.727a3.894,3.894,0,0,1-1.565,1.538,4.683,4.683,0,0,1-2.266.513,6.194,6.194,0,0,1-3.184-.863c-.971-.567-1.457-1.835-1.457-3.777v-1.592a4.236,4.236,0,0,1,.755-2.941,11.53,11.53,0,0,1,3.8-1.835q3.238-1.133,3.48-1.538a3.53,3.53,0,0,0,.216-1.592,5.03,5.03,0,0,0-.243-1.97.9.9,0,0,0-.836-.459c-.459,0-.728.135-.836.378a7.081,7.081,0,0,0-.162,2V453.4Zm2.1,2.644a4.5,4.5,0,0,0-1.835,1.727,6.345,6.345,0,0,0-.243,2,5.652,5.652,0,0,0,.216,1.943.848.848,0,0,0,.863.432.837.837,0,0,0,.809-.351,4.665,4.665,0,0,0,.189-1.781v-3.966Zm15.406-10.118-.108,1.835a5.3,5.3,0,0,1,1.835-1.646,5.364,5.364,0,0,1,2.428-.54,4.784,4.784,0,0,1,4.155,2.185,5.983,5.983,0,0,1,1.889-1.646,5.151,5.151,0,0,1,2.32-.54,4.891,4.891,0,0,1,2.779.728,3.169,3.169,0,0,1,1.4,1.781,12.812,12.812,0,0,1,.324,3.427v13.706H133.11V452.64a13.255,13.255,0,0,0-.189-3.049.8.8,0,0,0-.863-.594.868.868,0,0,0-.917.594,12.751,12.751,0,0,0-.216,3.076V465.24h-6.394V452.99a19.17,19.17,0,0,0-.162-3.4.775.775,0,0,0-.863-.567,1.108,1.108,0,0,0-.755.3,1.045,1.045,0,0,0-.351.728c-.027.3-.027.89-.027,1.835V465.24h-6.61V445.976l6.718-.054Zm34.238,9.983h-8.553v4.182a4.179,4.179,0,0,0,.216,1.673.849.849,0,0,0,.809.378.97.97,0,0,0,1-.513,5.051,5.051,0,0,0,.243-1.943v-2.536h6.259v1.43a11.985,11.985,0,0,1-.243,2.752,5.271,5.271,0,0,1-1.187,2.051,5.789,5.789,0,0,1-2.374,1.646,10.473,10.473,0,0,1-3.588.54,11.851,11.851,0,0,1-3.7-.54,5.478,5.478,0,0,1-3.723-3.534,12.319,12.319,0,0,1-.351-3.265v-5.612a8.7,8.7,0,0,1,.755-3.993,5.013,5.013,0,0,1,2.509-2.239,11.178,11.178,0,0,1,8.607.162,5.393,5.393,0,0,1,2.536,2.482,10.426,10.426,0,0,1,.728,4.344l.054,2.536Zm-6.61-3.13v-1.4a5.889,5.889,0,0,0-.189-1.943.7.7,0,0,0-.728-.432c-.459,0-.728.135-.836.378a6.947,6.947,0,0,0-.162,2v1.4Z" transform="translate(0 -2.118)" fill="#3458db"/>
    <path id="path2405" d="M382.133,446.151h-6.394V444.4a3.222,3.222,0,0,0-.243-1.565.947.947,0,0,0-.809-.324,1.116,1.116,0,0,0-.944.459,2.352,2.352,0,0,0-.324,1.376,3.525,3.525,0,0,0,.351,1.781,5.08,5.08,0,0,0,1.943,1.43c3.049,1.619,4.991,2.941,5.774,3.993.782,1.025,1.187,2.7,1.187,5.018a7.628,7.628,0,0,1-.675,3.7,5.054,5.054,0,0,1-2.563,2,11.166,11.166,0,0,1-4.425.809,11,11,0,0,1-4.722-.917,4.845,4.845,0,0,1-2.563-2.374,10.919,10.919,0,0,1-.594-4.074v-1.538h6.394v2.86a3.247,3.247,0,0,0,.27,1.7,1.107,1.107,0,0,0,.944.378,1.154,1.154,0,0,0,1.025-.486,2.548,2.548,0,0,0,.324-1.43,4.031,4.031,0,0,0-.648-2.725,20.1,20.1,0,0,0-3.211-2.131c-1.7-1-3.049-1.727-3.615-2.185a4.838,4.838,0,0,1-1.376-1.889,7.308,7.308,0,0,1-.54-3.076,9.018,9.018,0,0,1,.782-4.236A4.939,4.939,0,0,1,369.992,439a12.528,12.528,0,0,1,4.4-.7,12.011,12.011,0,0,1,4.56.782,4.6,4.6,0,0,1,2.509,1.943,10.894,10.894,0,0,1,.621,4.263l.054.863Zm9.794-5.45v2.32h1.862v3.049h-1.862v11.035a5.388,5.388,0,0,0,.216,2.131c.135.135.486.216,1.565.216v3.1h-2.671a21.645,21.645,0,0,1-3.211-.162,3.523,3.523,0,0,1-1.7-.782,2.652,2.652,0,0,1-.917-1.376,22.6,22.6,0,0,1-.189-3.642V446.1h-1.43v-3.049h1.43v-2.32l6.907-.027Zm18.4,9.335v4.722a18.164,18.164,0,0,1-.3,3.8,5.042,5.042,0,0,1-1.268,2.266,5.849,5.849,0,0,1-2.482,1.565,11.258,11.258,0,0,1-3.48.513,13.238,13.238,0,0,1-3.7-.432,5.4,5.4,0,0,1-2.374-1.3,4.814,4.814,0,0,1-1.214-2.1,13.911,13.911,0,0,1-.351-3.669v-4.937a11.107,11.107,0,0,1,.648-4.209,5.091,5.091,0,0,1,2.347-2.428,9.016,9.016,0,0,1,4.344-.917,10.629,10.629,0,0,1,3.8.594,6.09,6.09,0,0,1,2.455,1.538,5.328,5.328,0,0,1,1.187,1.943,8.825,8.825,0,0,1,.378,3.049Zm-6.61-1.457a5.108,5.108,0,0,0-.189-1.862c-.108-.27-.378-.378-.755-.378a.8.8,0,0,0-.782.378,5.309,5.309,0,0,0-.189,1.862v8.688a4.957,4.957,0,0,0,.189,1.781.757.757,0,0,0,.755.4.8.8,0,0,0,.782-.378,4.106,4.106,0,0,0,.189-1.619V448.58Zm15.163-5.315-.108,1.7a6.038,6.038,0,0,1,1.943-1.538,5.134,5.134,0,0,1,2.32-.513c3.912-.135,5.288,2,5.342,5.666V456.7a13.669,13.669,0,0,1-.351,3.75c-1.3,2.59-4.856,2.995-7.339,1.916a6.233,6.233,0,0,1-1.916-1.511v4.425h-6.61V443.264Zm1.862,5.612a10.013,10.013,0,0,0-.135-2.158c-.108-.243-.378-.378-.809-.378s-.728.135-.836.432a6.673,6.673,0,0,0-.189,2.1v7.986a7.084,7.084,0,0,0,.189,2.185.807.807,0,0,0,.836.432c.432,0,.7-.135.782-.4a6.866,6.866,0,0,0,.162-1.943Z" transform="translate(-208.471)" fill="#3d64f4"/>
    <path id="text2407" d="M603.4,451.727V450h.782a1.056,1.056,0,0,1,.351.054.363.363,0,0,1,.189.162.456.456,0,0,1,.081.27.471.471,0,0,1-.108.324.7.7,0,0,1-.378.162.634.634,0,0,1,.324.324l.3.486h-.3l-.243-.351a1.827,1.827,0,0,1-.162-.243c-.054-.054-.081-.108-.108-.108-.027-.027-.081-.027-.108-.054h-.4v.782l-.216-.081Zm.243-.971h.486a.6.6,0,0,0,.243-.027.27.27,0,0,0,.135-.108.383.383,0,0,0,.054-.162.306.306,0,0,0-.081-.216.434.434,0,0,0-.3-.081h-.567v.594Z" transform="translate(-381.308 -8.543)" fill="red"/>
    <path id="path2411" d="M603.506,449.4a1.4,1.4,0,1,1-1.4-1.4A1.393,1.393,0,0,1,603.506,449.4Z" transform="translate(-379.337 -7.083)" fill="none" stroke="#3d64f4" stroke-width="1"/>
  </g>
</svg>
