<svg xmlns="http://www.w3.org/2000/svg" width="46.021" height="46.02" viewBox="0 0 46.021 46.02">
  <g id="User_Profile" transform="translate(0 -0.01)">
    <g id="Group_5290" data-name="Group 5290" transform="translate(0 0.01)">
      <g id="Group_5289" data-name="Group 5289" transform="translate(0 0)">
        <path id="Path_14660" data-name="Path 14660" d="M46.016,30.667s0,0,0-.006a1.344,1.344,0,0,0-.119-.467l-4.05-10.151L39.176,1.169A1.348,1.348,0,0,0,36.843.451l-10.1,11.112H19.274L9.176.451a1.348,1.348,0,0,0-2.333.718L4.173,20.043.1,30.252v0l0,.008s0,0,0,0a1.364,1.364,0,0,0-.06.192,1.348,1.348,0,0,0,.584,1.441l21.661,13.92a1.348,1.348,0,0,0,1.458,0L45.4,31.895a1.348,1.348,0,0,0,.619-1.124.043.043,0,0,0,0-.011C46.021,30.729,46.018,30.7,46.016,30.667ZM29.276,20.622a1.346,1.346,0,1,1-.4.954A1.357,1.357,0,0,1,29.276,20.622Zm-14.441,0a1.35,1.35,0,1,1-.395.954A1.36,1.36,0,0,1,14.835,20.622Zm8.174,22.456-17.74-11.4L16.682,30.4l4.5,5.154.658,1.138a1.348,1.348,0,0,0,1.167.674h0a1.348,1.348,0,0,0,1.167-.674l.656-1.136,4.5-5.155L40.75,31.678Z" transform="translate(0 -0.01)" fill="#3d64f4"/>
      </g>
    </g>
  </g>
</svg>
