<svg id="opensea" xmlns="http://www.w3.org/2000/svg" width="46" height="46" viewBox="0 0 46 46">
  <path id="Path_14657" data-name="Path 14657" d="M46,23A23,23,0,1,1,23,0,23,23,0,0,1,46,23Z" fill="#3d64f4"/>
  <path id="Path_14658" data-name="Path 14658" d="M24.629,40.4l.1-.156,5.983-9.36a.2.2,0,0,1,.359.026c1,2.24,1.862,5.026,1.458,6.761a10.567,10.567,0,0,1-1.177,2.573c-.068.13-.144.258-.224.38a.2.2,0,0,1-.17.09H24.8A.2.2,0,0,1,24.629,40.4Z" transform="translate(-13.282 -16.625)" fill="#fff"/>
  <path id="Path_14659" data-name="Path 14659" d="M49.356,36.312v1.482a.213.213,0,0,1-.128.194,7.367,7.367,0,0,0-2.708,1.843c-1.682,2.342-2.968,5.69-5.841,5.69H28.692A7.7,7.7,0,0,1,21,37.8v-.137a.206.206,0,0,1,.206-.206h6.683a.227.227,0,0,1,.217.253A2.281,2.281,0,0,0,28.344,39a2.351,2.351,0,0,0,2.108,1.309H33.76V37.723H30.49a.211.211,0,0,1-.17-.331c.035-.054.076-.111.118-.175.31-.44.751-1.122,1.191-1.9a14.881,14.881,0,0,0,.825-1.647c.047-.1.085-.206.123-.307.064-.18.13-.347.177-.515.047-.142.085-.291.123-.43a6.656,6.656,0,0,0,.158-1.508c0-.206-.009-.421-.028-.626-.009-.224-.038-.449-.066-.673-.019-.2-.054-.395-.092-.6-.047-.3-.113-.6-.189-.9L32.633,28c-.057-.206-.1-.4-.17-.607-.187-.645-.4-1.274-.629-1.862-.083-.234-.177-.458-.272-.683-.139-.338-.281-.645-.411-.936-.066-.132-.123-.253-.18-.376-.064-.139-.13-.279-.2-.411-.047-.1-.1-.2-.139-.291l-.4-.747a.132.132,0,0,1,.149-.191l2.528.685h.007s.007,0,.009,0l.333.092.366.1.135.038v-1.5A1.307,1.307,0,0,1,35.06,20a1.283,1.283,0,0,1,.919.385,1.321,1.321,0,0,1,.38.929v2.231l.269.076a.215.215,0,0,1,.061.031c.066.05.161.123.281.213.095.076.2.168.319.262.243.2.534.449.853.74.085.073.168.149.243.224.411.383.872.832,1.312,1.328.123.139.243.281.366.43s.253.3.366.449c.149.2.31.4.449.619.066.1.142.206.206.307.18.272.338.553.489.834.064.13.13.272.187.411a6.013,6.013,0,0,1,.385,1.141,1.427,1.427,0,0,1,.054.253v.019a2.163,2.163,0,0,1,.047.357,3.817,3.817,0,0,1-.066,1.179,4.3,4.3,0,0,1-.139.494c-.057.161-.113.328-.187.487a6.6,6.6,0,0,1-.508.964c-.064.113-.139.234-.215.347s-.168.234-.243.345c-.1.142-.215.291-.328.423a4.489,4.489,0,0,1-.319.4c-.158.187-.31.364-.468.534-.094.111-.2.224-.3.326s-.206.215-.3.31c-.158.158-.291.281-.4.383l-.26.239a.212.212,0,0,1-.139.052H36.36v2.583h2.533a2.37,2.37,0,0,0,1.541-.57A18.479,18.479,0,0,0,42,38.2a.2.2,0,0,1,.1-.059l7-2.023A.206.206,0,0,1,49.356,36.312Z" transform="translate(-11.34 -10.8)" fill="#fff"/>
</svg>
