<svg xmlns="http://www.w3.org/2000/svg" width="44.345" height="51.999" viewBox="0 0 44.345 51.999">
  <g id="User_Profile" transform="translate(-37.681 0)">
    <g id="Group_5254" data-name="Group 5254" transform="translate(37.681 0)">
      <g id="Group_5253" data-name="Group 5253" transform="translate(0 0)">
        <g id="Group_5252" data-name="Group 5252">
          <path id="Path_14612" data-name="Path 14612" d="M81.221,8.979A86.5,86.5,0,0,1,60.41.152a1.093,1.093,0,0,0-1.112,0A84.128,84.128,0,0,1,38.486,8.979a1.094,1.094,0,0,0-.8,1.055V21.21A32.152,32.152,0,0,0,47.445,44.7c4.8,4.7,10.381,7.3,12.409,7.3s7.614-2.6,12.409-7.3A32.152,32.152,0,0,0,82.026,21.21V10.034A1.094,1.094,0,0,0,81.221,8.979ZM79.838,21.21a30.008,30.008,0,0,1-9.107,21.929c-4.716,4.62-9.757,6.672-10.878,6.672s-6.163-2.052-10.878-6.672A30.008,30.008,0,0,1,39.869,21.21V10.864a86.144,86.144,0,0,0,19.985-8.5,88.871,88.871,0,0,0,19.984,8.5Z" transform="translate(-37.681 0)" fill="#3d64f4"/>
          <path id="Path_14613" data-name="Path 14613" d="M88.473,99.636a1.094,1.094,0,0,0-1.419-.617c-1.954.77-3.96,1.479-5.961,2.106a1.094,1.094,0,0,0-.766,1.044v4.224a1.094,1.094,0,0,0,2.188,0v-3.425c1.8-.581,3.589-1.223,5.342-1.914A1.093,1.093,0,0,0,88.473,99.636Z" transform="translate(-75.996 -88.894)" fill="#3d64f4"/>
          <path id="Path_14614" data-name="Path 14614" d="M171.3,88.4a1.094,1.094,0,0,0,.439-.092l.02-.009a1.094,1.094,0,1,0-.883-2l-.018.008A1.093,1.093,0,0,0,171.3,88.4Z" transform="translate(-156.744 -77.45)" fill="#3d64f4"/>
          <path id="Path_14615" data-name="Path 14615" d="M311.556,345.706a1.094,1.094,0,0,0-1.514.317,26.624,26.624,0,0,1-3.143,3.926,27.943,27.943,0,0,1-3.138,2.791,1.094,1.094,0,1,0,1.326,1.74,30.149,30.149,0,0,0,3.384-3.01,28.784,28.784,0,0,0,3.4-4.25A1.094,1.094,0,0,0,311.556,345.706Z" transform="translate(-276.351 -310.436)" fill="#3d64f4"/>
          <path id="Path_14616" data-name="Path 14616" d="M277.172,432.116l-.063.037a1.094,1.094,0,1,0,1.1,1.893l.072-.043a1.094,1.094,0,1,0-1.105-1.888Z" transform="translate(-252.303 -388.096)" fill="#3d64f4"/>
          <path id="Path_14617" data-name="Path 14617" d="M128.891,162.665a3.557,3.557,0,0,0-5.03,5.03l6.459,6.459a3.558,3.558,0,0,0,5.03,0l13.483-13.483a3.557,3.557,0,0,0-5.03-5.03l-10.968,10.968Zm16.459-5.478a1.369,1.369,0,1,1,1.936,1.936L133.8,172.607a1.37,1.37,0,0,1-1.937,0l-6.459-6.458a1.369,1.369,0,0,1,1.936-1.937l4.717,4.717a1.094,1.094,0,0,0,1.547,0Z" transform="translate(-114.174 -138.898)" fill="#3d64f4"/>
        </g>
      </g>
    </g>
  </g>
</svg>
