<svg xmlns="http://www.w3.org/2000/svg" width="46.864" height="53.999" viewBox="0 0 46.864 53.999">
  <g id="User_Profile" transform="translate(-2.49 -1.501)">
    <g id="Layer_2" data-name="Layer 2" transform="translate(2.49 1.501)">
      <path id="Path_14608" data-name="Path 14608" d="M33.9,23.1H11.49V16.278A11.052,11.052,0,0,1,20.868,5.189a10.8,10.8,0,0,1,12.114,9.2,1.82,1.82,0,0,0,3.6-.54A14.4,14.4,0,0,0,21.336,1.535,14.724,14.724,0,0,0,7.89,16.4v7.2a8.172,8.172,0,0,0-5.4,7.668V47.4a8.19,8.19,0,0,0,8.118,8.1H33.9a8.19,8.19,0,0,0,8.19-8.1V31.38A8.19,8.19,0,0,0,33.9,23.1ZM22.29,35.7a3.6,3.6,0,1,1-3.6,3.6A3.6,3.6,0,0,1,22.29,35.7Z" transform="translate(-2.49 -1.501)" fill="#3d64f4"/>
      <path id="Path_14609" data-name="Path 14609" d="M26.66,12.517l3.6-.7a1.834,1.834,0,1,0-.7-3.6l-3.6.7a1.834,1.834,0,0,0,.7,3.6Z" transform="translate(15.119 3.844)" fill="#3d64f4"/>
      <path id="Path_14610" data-name="Path 14610" d="M25.956,9.6l3.024-1.944a1.8,1.8,0,1,0-1.944-3.024L24.012,6.575A1.8,1.8,0,0,0,25.956,9.6Z" transform="translate(14.13 0.732)" fill="#3d64f4"/>
      <path id="Path_14611" data-name="Path 14611" d="M30.231,12.733l-3.6-.63A1.792,1.792,0,1,0,26,15.631l3.6.648a1.8,1.8,0,1,0,.63-3.546Z" transform="translate(15.13 6.958)" fill="#3d64f4"/>
    </g>
  </g>
</svg>
