<svg xmlns="http://www.w3.org/2000/svg" width="66.692" height="53.021" viewBox="0 0 66.692 53.021">
  <g id="User_Profile" transform="translate(-0.001 -52.478)">
    <g id="Group_5247" data-name="Group 5247" transform="translate(46.268 60.148)">
      <g id="Group_5246" data-name="Group 5246" transform="translate(0 0)">
        <path id="Path_14596" data-name="Path 14596" d="M374.941,128.486l-15.423-16.34a2.5,2.5,0,1,0-3.637,3.433l13.8,14.622-13.8,14.624a2.5,2.5,0,0,0,3.637,3.435l15.423-16.34A2.5,2.5,0,0,0,374.941,128.486Z" transform="translate(-355.199 -111.361)" fill="#3d64f4"/>
      </g>
    </g>
    <g id="Group_5249" data-name="Group 5249" transform="translate(0.001 60.147)">
      <g id="Group_5248" data-name="Group 5248" transform="translate(0)">
        <path id="Path_14597" data-name="Path 14597" d="M19.743,144.823,5.941,130.2l13.8-14.623a2.5,2.5,0,1,0-3.638-3.433L.683,128.484a2.5,2.5,0,0,0,0,3.434l15.423,16.34a2.5,2.5,0,0,0,3.637-3.435Z" transform="translate(-0.001 -111.36)" fill="#3d64f4"/>
      </g>
    </g>
    <g id="Group_5251" data-name="Group 5251" transform="translate(27.177 52.478)">
      <g id="Group_5250" data-name="Group 5250" transform="translate(0 0)">
        <path id="Path_14598" data-name="Path 14598" d="M218.852,52.506A2.5,2.5,0,0,0,216,54.6l-7.336,48.019a2.5,2.5,0,0,0,2.095,2.85,2.577,2.577,0,0,0,.381.028,2.5,2.5,0,0,0,2.469-2.123l7.336-48.019A2.5,2.5,0,0,0,218.852,52.506Z" transform="translate(-208.636 -52.478)" fill="#3d64f4"/>
      </g>
    </g>
  </g>
</svg>
