<svg xmlns="http://www.w3.org/2000/svg" width="56" height="56" viewBox="0 0 56 56">
  <g id="User_Profile" transform="translate(-1 -1)">
    <path id="Path_14599" data-name="Path 14599" d="M20,49.839a10.839,10.839,0,0,0,18.917,7.226l-1.346-1.2a9.032,9.032,0,1,1,2.3-6.022c0,.28-.027.556-.052.834L38.787,49.3l-1.445,1.084,2.71,3.613a.9.9,0,0,0,1.445,0l2.71-3.613L42.761,49.3l-1.145,1.527c.029-.327.061-.655.061-.985a10.839,10.839,0,0,0-21.677,0Z" transform="translate(-1.839 -3.678)" fill="#3d64f4"/>
    <path id="Path_14600" data-name="Path 14600" d="M30.666,50.668l-3.113,1.556.807,1.617,3.613-1.806a.9.9,0,0,0,.5-.808V44H30.666Z" transform="translate(-2.57 -4.162)" fill="#3d64f4"/>
    <path id="Path_14601" data-name="Path 14601" d="M49,50H61.645v1.806H49Z" transform="translate(-4.645 -4.742)" fill="#3d64f4"/>
    <path id="Path_14602" data-name="Path 14602" d="M1,50H16.355v1.806H1Z" transform="translate(0 -4.742)" fill="#3d64f4"/>
    <path id="Path_14603" data-name="Path 14603" d="M12.032,45.774V25.9a.9.9,0,0,0-.9-.9H3.9a.9.9,0,0,0-.9.9V45.774H4.806V26.806h5.419V45.774Z" transform="translate(-0.194 -2.323)" fill="#3d64f4"/>
    <path id="Path_14604" data-name="Path 14604" d="M27.129,15H19.9a.9.9,0,0,0-.9.9V39.387h1.806V16.806h5.419V34.871h1.806V15.9A.9.9,0,0,0,27.129,15Z" transform="translate(-1.742 -1.355)" fill="#3d64f4"/>
    <path id="Path_14605" data-name="Path 14605" d="M44.032,40.355V25.9a.9.9,0,0,0-.9-.9H35.9a.9.9,0,0,0-.9.9v9.935h1.806V26.806h5.419V40.355Z" transform="translate(-3.291 -2.323)" fill="#3d64f4"/>
    <path id="Path_14606" data-name="Path 14606" d="M60.032,44.806V15.9a.9.9,0,0,0-.9-.9H51.9a.9.9,0,0,0-.9.9v28.9h1.806v-28h5.419v28Z" transform="translate(-4.839 -1.355)" fill="#3d64f4"/>
    <path id="Path_14607" data-name="Path 14607" d="M50.869,8.226a3.613,3.613,0,1,0-3.613-3.613A3.57,3.57,0,0,0,47.437,5.7L38.9,11.026a3.593,3.593,0,0,0-5.035.066L24.522,5.6a3.554,3.554,0,0,0,.154-.985,3.613,3.613,0,1,0-6.955,1.375L8.853,12.641a3.577,3.577,0,0,0-2.242-.8,3.621,3.621,0,1,0,3.342,2.238l8.871-6.653a3.573,3.573,0,0,0,4.8-.261l9.335,5.5a3.554,3.554,0,0,0-.154.985,3.613,3.613,0,1,0,7.226,0,3.57,3.57,0,0,0-.181-1.084l8.541-5.329a3.593,3.593,0,0,0,2.478.994Zm0-5.419a1.806,1.806,0,1,1-1.806,1.806A1.806,1.806,0,0,1,50.869,2.806ZM6.611,17.258a1.806,1.806,0,1,1,1.806-1.806A1.806,1.806,0,0,1,6.611,17.258ZM21.063,6.419a1.806,1.806,0,1,1,1.806-1.806A1.806,1.806,0,0,1,21.063,6.419Zm15.355,9.032a1.806,1.806,0,1,1,1.806-1.806A1.806,1.806,0,0,1,36.418,15.452Z" transform="translate(-0.192)" fill="#3d64f4"/>
  </g>
</svg>
