<svg xmlns="http://www.w3.org/2000/svg" width="27.233" height="32.642" viewBox="0 0 27.233 32.642">
  <g id="User_Profile" transform="translate(0 0)">
    <path id="Path_14654" data-name="Path 14654" d="M94.894,15.724a7.608,7.608,0,0,0,5.559-2.3,7.608,7.608,0,0,0,2.3-5.559,7.608,7.608,0,0,0-2.3-5.559,7.86,7.86,0,0,0-11.118,0,7.607,7.607,0,0,0-2.3,5.559,7.608,7.608,0,0,0,2.3,5.559A7.61,7.61,0,0,0,94.894,15.724ZM90.688,3.656a5.947,5.947,0,0,1,8.412,0,5.684,5.684,0,0,1,1.743,4.206A5.684,5.684,0,0,1,99.1,12.068a5.947,5.947,0,0,1-8.412,0,5.683,5.683,0,0,1-1.743-4.206,5.683,5.683,0,0,1,1.743-4.206Zm0,0" transform="translate(-81.483)" fill="#fff"/>
    <path id="Path_14655" data-name="Path 14655" d="M27.167,256.649a19.419,19.419,0,0,0-.264-2.063,16.25,16.25,0,0,0-.507-2.074,10.244,10.244,0,0,0-.853-1.934,7.291,7.291,0,0,0-1.285-1.675,5.668,5.668,0,0,0-1.847-1.16,6.382,6.382,0,0,0-2.357-.427,2.393,2.393,0,0,0-1.278.542c-.383.25-.831.539-1.331.858a7.627,7.627,0,0,1-1.722.759,6.688,6.688,0,0,1-4.213,0,7.6,7.6,0,0,1-1.721-.759c-.5-.317-.944-.605-1.332-.859a2.39,2.39,0,0,0-1.277-.542,6.374,6.374,0,0,0-2.357.427,5.663,5.663,0,0,0-1.847,1.16,7.292,7.292,0,0,0-1.285,1.675,10.263,10.263,0,0,0-.852,1.934,16.289,16.289,0,0,0-.507,2.074,19.286,19.286,0,0,0-.264,2.063c-.043.623-.065,1.272-.065,1.928a5.42,5.42,0,0,0,1.61,4.1,5.794,5.794,0,0,0,4.148,1.513H21.475a5.8,5.8,0,0,0,4.148-1.513,5.418,5.418,0,0,0,1.61-4.1c0-.658-.022-1.306-.066-1.928ZM24.3,261.292a3.9,3.9,0,0,1-2.829.986H5.758a3.9,3.9,0,0,1-2.829-.986,3.539,3.539,0,0,1-1.016-2.715c0-.612.02-1.216.061-1.8a17.4,17.4,0,0,1,.239-1.858,14.367,14.367,0,0,1,.446-1.828,8.355,8.355,0,0,1,.694-1.573,5.4,5.4,0,0,1,.945-1.238,3.76,3.76,0,0,1,1.229-.764,4.4,4.4,0,0,1,1.506-.291c.067.036.186.1.38.23.393.256.846.549,1.348.869a9.477,9.477,0,0,0,2.162.966,8.6,8.6,0,0,0,5.39,0,9.488,9.488,0,0,0,2.163-.967c.513-.328.953-.612,1.347-.868.193-.126.313-.194.38-.23a4.4,4.4,0,0,1,1.507.291,3.765,3.765,0,0,1,1.228.764,5.391,5.391,0,0,1,.945,1.238,8.328,8.328,0,0,1,.694,1.572,14.334,14.334,0,0,1,.446,1.828,17.543,17.543,0,0,1,.239,1.858h0c.041.578.061,1.181.061,1.795a3.539,3.539,0,0,1-1.016,2.715Zm0,0" transform="translate(0 -231.549)" fill="#fff"/>
  </g>
</svg>
