<?xml version="1.0" encoding="utf-8"?>
<!-- Generator: Adobe Illustrator 24.0.1, SVG Export Plug-In . SVG Version: 6.00 Build 0)  -->
<svg version="1.1" id="Layer_1" xmlns="http://www.w3.org/2000/svg" xmlns:xlink="http://www.w3.org/1999/xlink" x="0px" y="0px"
	 viewBox="0 0 27.2 32.6" style="enable-background:new 0 0 27.2 32.6;" xml:space="preserve">
<style type="text/css">
	.st0{fill:#0D82EB;}
</style>
<g id="User_Profile" transform="translate(0 0)">
	<path id="Path_14654" class="st0" d="M13.4,15.7c2.1,0,4.1-0.8,5.6-2.3c1.5-1.5,2.3-3.5,2.3-5.6c0-2.1-0.8-4.1-2.3-5.6
		c-3.1-3.1-8-3.1-11.1,0c0,0,0,0,0,0C6.4,3.8,5.5,5.8,5.6,7.9c0,2.1,0.8,4.1,2.3,5.6C9.3,14.9,11.3,15.8,13.4,15.7z M9.2,3.7
		c2.3-2.3,6.1-2.3,8.4,0c0,0,0,0,0,0c1.1,1.1,1.8,2.6,1.7,4.2c0,1.6-0.6,3.1-1.7,4.2c-2.3,2.3-6.1,2.3-8.4,0c0,0,0,0,0,0
		C8.1,11,7.4,9.4,7.5,7.9C7.4,6.3,8.1,4.8,9.2,3.7L9.2,3.7z"/>
	<path id="Path_14655" class="st0" d="M27.2,25.1c-0.1-0.7-0.1-1.4-0.3-2.1c-0.1-0.7-0.3-1.4-0.5-2.1c-0.2-0.7-0.5-1.3-0.9-1.9
		c-0.3-0.6-0.8-1.2-1.3-1.7c-0.5-0.5-1.2-0.9-1.8-1.2c-0.8-0.3-1.6-0.4-2.4-0.4c-0.5,0.1-0.9,0.2-1.3,0.5c-0.4,0.3-0.8,0.5-1.3,0.9
		c-0.5,0.3-1.1,0.6-1.7,0.8c-1.4,0.5-2.8,0.5-4.2,0c-0.6-0.2-1.2-0.4-1.7-0.8c-0.5-0.3-0.9-0.6-1.3-0.9c-0.4-0.3-0.8-0.5-1.3-0.5
		c-0.8,0-1.6,0.1-2.4,0.4c-0.7,0.3-1.3,0.7-1.8,1.2C2.5,17.8,2,18.4,1.7,19c-0.3,0.6-0.6,1.3-0.9,1.9c-0.2,0.7-0.4,1.4-0.5,2.1
		c-0.1,0.7-0.2,1.4-0.3,2.1C0,25.7,0,26.4,0,27c-0.1,1.5,0.5,3,1.6,4.1c1.1,1,2.6,1.6,4.1,1.5h15.7c1.5,0.1,3-0.5,4.1-1.5
		c1.1-1.1,1.7-2.6,1.6-4.1C27.2,26.4,27.2,25.7,27.2,25.1L27.2,25.1z M24.3,29.7c-0.8,0.7-1.8,1-2.8,1H5.8c-1,0.1-2.1-0.3-2.8-1
		C2.2,29,1.8,28,1.9,27c0-0.6,0-1.2,0.1-1.8c0-0.6,0.1-1.2,0.2-1.9c0.1-0.6,0.3-1.2,0.4-1.8C2.8,21,3.1,20.5,3.4,20
		c0.3-0.5,0.6-0.9,0.9-1.2c0.4-0.3,0.8-0.6,1.2-0.8c0.5-0.2,1-0.3,1.5-0.3c0.1,0,0.2,0.1,0.4,0.2c0.4,0.3,0.8,0.5,1.3,0.9
		c0.7,0.4,1.4,0.7,2.2,1c1.8,0.6,3.6,0.6,5.4,0c0.8-0.2,1.5-0.6,2.2-1c0.5-0.3,1-0.6,1.3-0.9c0.2-0.1,0.3-0.2,0.4-0.2
		c0.5,0,1,0.1,1.5,0.3c0.5,0.2,0.9,0.4,1.2,0.8c0.4,0.4,0.7,0.8,0.9,1.2c0.3,0.5,0.5,1,0.7,1.6c0.2,0.6,0.3,1.2,0.4,1.8
		c0.1,0.6,0.2,1.2,0.2,1.9l0,0c0,0.6,0.1,1.2,0.1,1.8C25.4,28,25,29,24.3,29.7L24.3,29.7z"/>
</g>
</svg>
