<svg xmlns="http://www.w3.org/2000/svg" width="59.996" height="36.776" viewBox="0 0 59.996 36.776">
  <path id="WalletConnect_00000073703063438220642730000002917717552236472496_" d="M12.287,7.159a25.423,25.423,0,0,1,35.422,0L48.885,8.3a1.2,1.2,0,0,1,0,1.733l-4.023,3.946a.646.646,0,0,1-.882,0L42.355,12.39a17.733,17.733,0,0,0-24.713,0l-1.733,1.7a.646.646,0,0,1-.882,0l-4.039-3.931a1.2,1.2,0,0,1,0-1.733Zm43.747,8.155,3.59,3.513a1.2,1.2,0,0,1,0,1.733L43.453,36.391a1.261,1.261,0,0,1-1.764,0h0L30.222,25.156a.318.318,0,0,0-.449,0h0L18.307,36.391a1.261,1.261,0,0,1-1.764,0h0L.371,20.56a1.2,1.2,0,0,1,0-1.733l3.59-3.513a1.261,1.261,0,0,1,1.764,0L17.193,26.549a.318.318,0,0,0,.449,0h0L29.108,15.314a1.261,1.261,0,0,1,1.764,0h0L42.339,26.549a.318.318,0,0,0,.449,0L54.255,15.314A1.28,1.28,0,0,1,56.034,15.314Z" transform="translate(0 0.025)" fill="#3d64f4"/>
</svg>
